<svg xmlns="http://www.w3.org/2000/svg" width="50" height="50" viewBox="0 0 60 60" id="icon"><path d="M7.967 11.853c-1.013 0-1.844.805-1.844 1.79v6.623l11.523-8.412h-9.68zm0 16.983h22.217c1.012 0 1.84-.807 1.84-1.792v-13.4c0-.986-.828-1.79-1.84-1.79H22.13L6.123 23.54v3.502c0 .985.832 1.792 1.844 1.792zm44.356-2.362c-.685-.66-5.83-6.592-6.41-7.216-.917-.968-2.247-1.57-3.396-1.57l-5.785-.19c-1.148 0-2.085.914-2.085 2.022v9.505c0 1.11-.938 2.022-2.082 2.022H6.245c-1.145 0-2.068.907-2.068 2.014v6.07c.13.99 1.01 1.77 2.07 1.77h4.02c.7-3.66 4.02-6.447 7.992-6.447 2.186.005 4.226.833 5.755 2.326a7.733 7.733 0 0 1 2.228 4.12h8.514c.697-3.657 4.01-6.443 7.98-6.443 2.194 0 4.237.83 5.77 2.322a7.73 7.73 0 0 1 2.224 4.12h3.007c1.06 0 1.927-.78 2.06-1.77l.025-7.576c0-1.382-2.787-4.4-3.5-5.08zm-3.604 1.753H37.476c-.466 0-.845-.47-.845-1.036l-.005-6.442c0-.557.377-1.024.84-1.024l4.237.09c1.033 0 1.933.434 2.75 1.337 0 0 4.957 5.656 5.277 5.98.19.2.488 1.098-1.012 1.098zm-30.45 8.295c-3.313-.006-6.003 2.588-6.01 5.796-.01 3.213 2.67 5.824 5.98 5.83 3.315.01 6.003-2.587 6.01-5.796.01-3.21-2.667-5.82-5.98-5.83zm-.018 8.347c-1.446-.008-2.612-1.143-2.612-2.543.008-1.396 1.18-2.525 2.622-2.522 1.44.003 2.61 1.14 2.604 2.542-.007 1.393-1.18 2.52-2.613 2.52zm24.505-8.346c-3.313-.01-6.004 2.585-6.01 5.793-.006 3.213 2.674 5.822 5.985 5.83 3.312.01 6-2.587 6.004-5.796.012-3.21-2.665-5.82-5.98-5.826zm-.02 8.345c-1.442-.005-2.608-1.144-2.608-2.543.005-1.396 1.18-2.525 2.62-2.522 1.44.003 2.61 1.14 2.606 2.542-.005 1.393-1.178 2.522-2.62 2.522z"/></svg>