<svg xmlns="http://www.w3.org/2000/svg" width="50" height="50" viewBox="0 0 60 60" id="icon"><path d="M47.605 13.75h-35.21a4.075 4.075 0 0 0-4.063 4.062v24.376a4.074 4.074 0 0 0 4.063 4.063h35.21a4.074 4.074 0 0 0 4.062-4.06V17.81a4.074 4.074 0 0 0-4.062-4.063zm-35.21 2.708h35.21c.733 0 1.353.62 1.353 1.354v4.063H11.04v-4.063c0-.734.62-1.354 1.355-1.354zm35.21 27.084h-35.21c-.734 0-1.354-.62-1.354-1.354V30h37.92v12.188c0 .734-.62 1.354-1.354 1.354zM13.75 35.417h2.708v5.417H13.75v-5.417zm5.416 0h2.708v5.417h-2.708v-5.417zm5.417 0h2.708v5.417h-2.706v-5.417z"/></svg>