<svg xmlns="http://www.w3.org/2000/svg" width="50" height="50" viewBox="0 0 60 60" id="icon"><path fill-rule="evenodd" clip-rule="evenodd" d="M45.023 28.56c-1.496.89-2.257 2.206-2.28 3.95-.024 1.742-.905 2.627-2.648 2.65-1.742.023-3.06.78-3.953 2.28-.89 1.498-2.096 1.822-3.618.97-1.52-.85-3.042-.85-4.56 0-1.523.852-2.728.528-3.62-.97-.89-1.5-2.205-2.257-3.948-2.28-1.742-.023-2.627-.908-2.65-2.65-.023-1.744-.78-3.06-2.28-3.95-1.5-.892-1.82-2.097-.97-3.62.853-1.518.853-3.04 0-4.56-.85-1.52-.53-2.725.97-3.618 1.498-.89 2.256-2.21 2.28-3.952.023-1.743.908-2.625 2.65-2.65 1.743-.02 3.058-.783 3.95-2.278.89-1.498 2.096-1.823 3.618-.972 1.518.852 3.04.852 4.56 0 1.522-.85 2.728-.526 3.618.972.892 1.495 2.21 2.257 3.953 2.28 1.743.023 2.624.904 2.647 2.648.024 1.74.785 3.06 2.28 3.952 1.5.893 1.824 2.097.972 3.62-.85 1.52-.85 3.04 0 4.56.85 1.522.527 2.726-.97 3.618zM32.23 16.282h-2.126c-.297.832-.848 1.56-1.65 2.183-.8.624-1.542 1.045-2.226 1.268v2.377a9.062 9.062 0 0 0 3.386-1.983v9.878h2.617V16.282zm-12.228 19.65c4.223.09 2.864 3.554 6.286 3.637 0-.09-6.61 13.703-6.61 13.703L16.503 48.5l-5.743.644 7.16-14.072c.002 0 .246.86 2.082.86zm16.622 2.546c1.195-1.01.13-2.304 5.365-2.854l7.25 13.52-5.653-.733-1.98 5.143-8.08-13.888s1.72.283 3.096-1.186z"/></svg>