<svg xmlns="http://www.w3.org/2000/svg" width="50" height="50" viewBox="0 0 60 60" id="icon"><path fill-rule="evenodd" clip-rule="evenodd" d="M26.89 15.976l-3.284-7.858S25.55 9.71 26.74 9.71c1.196 0 3.237-1.644 3.237-1.644s1.89 1.645 3.08 1.645c1.196 0 3.234-1.69 3.234-1.69l-3.23 7.958h-6.17zm-.098.795h6.365v2.393h-6.365v-2.39zm6.318 3.186s10.496 10.2 10.496 20.345c0 10.147-11.043 11.44-11.043 11.44-2.023.54-5.275 0-5.275 0s-10.894-.843-10.894-11.486c0-10.052 10.398-20.298 10.398-20.298h6.318zm-7.465 14.142c0 .548.082 1.014.243 1.405.16.393.37.73.632 1.015.256.287.55.534.882.74.332.204.67.39 1.024.55.347.16.686.313 1.017.46.332.144.626.297.885.463.26.167.47.355.63.568.163.213.242.466.242.765 0 .253-.044.488-.14.698-.093.21-.23.383-.406.527-.18.14-.398.25-.654.327a2.87 2.87 0 0 1-.87.117 4.57 4.57 0 0 1-1.298-.165c-.373-.11-.7-.234-.967-.366a8.052 8.052 0 0 1-.66-.37c-.175-.113-.307-.17-.4-.17a.31.31 0 0 0-.18.057.452.452 0 0 0-.12.188 1.245 1.245 0 0 0-.062.344 4.89 4.89 0 0 0-.022.525c0 .313.02.548.056.714a.74.74 0 0 0 .19.376c.09.09.23.188.43.302.2.114.446.22.743.327.296.103.637.19 1.026.265.385.072.803.11 1.258.11.022 0 .038-.005.057-.005v1.557h1.594v-1.765c.08-.02.158-.03.23-.052a4.482 4.482 0 0 0 1.537-.784c.44-.342.788-.777 1.044-1.295.253-.518.382-1.122.382-1.81 0-.525-.08-.982-.243-1.367a3.463 3.463 0 0 0-.635-1.01 4.24 4.24 0 0 0-.9-.74 10.49 10.49 0 0 0-1.03-.548 30.57 30.57 0 0 0-1.03-.46 7.288 7.288 0 0 1-.908-.468 2.27 2.27 0 0 1-.636-.566 1.22 1.22 0 0 1-.237-.75c0-.194.035-.382.107-.555.07-.172.177-.322.322-.447a1.55 1.55 0 0 1 .54-.29c.216-.07.47-.11.76-.11.373 0 .71.045 1.017.137.313.087.585.19.822.3a7.7 7.7 0 0 1 .594.306c.162.092.28.14.352.14.076 0 .136-.018.177-.058a.398.398 0 0 0 .1-.196c.022-.09.04-.197.054-.335a10.44 10.44 0 0 0 .004-.934 1.944 1.944 0 0 0-.036-.294.85.85 0 0 0-.06-.19.677.677 0 0 0-.136-.17c-.067-.068-.21-.15-.417-.25a4.967 4.967 0 0 0-.718-.274 6.192 6.192 0 0 0-.866-.19c-.063-.01-.13-.01-.193-.017v-1.67H29.18v1.732c-.28.036-.584.04-.85.117a4.06 4.06 0 0 0-1.396.7 3.45 3.45 0 0 0-.936 1.183c-.236.475-.353 1.027-.353 1.653z"/></svg>