<svg xmlns="http://www.w3.org/2000/svg" width="50" height="50" viewBox="0 0 60 60" id="icon"><path d="M25.31 49.694l4.687-12.823-1.45-3.112h2.905l-1.455 3.114 4.688 12.824-2.945 4.07c5.974-1 15.51-6.303 20.134-6.303l-1.618-6.98a6.705 6.705 0 0 0-1.758-1.282c-3.393-1.74-6.904-3.18-10.452-4.544-.265-.1-.58-.302-.69-.534-.29-.64-.492-1.32-.7-1.99-.13-.433-.244-.836-.714-1.042-.13-.057-.242-.305-.242-.464.026-1.558-.336-3.194.822-4.555.034-.042.05-.1.074-.15.626-1.366.732-2.928 1.604-4.2.023-.027.027-.07.032-.106.102-.972.205-1.936.288-2.905.01-.12-.097-.335-.2-.37-.48-.17-.455-.557-.45-.94 0-1.896 0-2.17-.005-4.065 0-1.1-.323-2.08-1.154-2.828-.947-.85-1.92-1.674-2.895-2.496-.467-.397-.51-.704-.07-1.14.196-.194.443-.332.67-.495l-.147-.223c-.294 0-.59-.038-.876.006-1.077.174-2.16.326-3.214.575-2.02.477-3.98 1.108-5.618 2.462-1.12.922-2.015 1.998-2.128 3.52-.055.8-.05 1.6-.055 2.397-.01 1.3.01.984-.018 2.282-.007.213-.124.56-.273.607-.524.17-.54.506-.47.945.053.3.015.616.08.91.182.814.374 1.628.61 2.428.173.596.51 1.16.607 1.767.185 1.21.638 2.262 1.456 3.177.133.15.236.404.22.607-.065.93-.16 1.86-.286 2.788-.027.18-.215.45-.37.484-.62.126-.714.603-.862 1.087-.193.638-.402 1.27-.648 1.888a.968.968 0 0 1-.46.48c-1.1.477-2.222.92-3.33 1.384-1.18.497-2.372.97-3.524 1.518-1.188.57-2.342 1.208-3.505 1.833-.686.365-1.325.773-1.86 1.276l-1.62 6.895c7.886 0 12.002 5.7 20.207 6.404l-3.02-4.175zm12.376-6.787h6.812v1.214h-6.812V42.91z"/></svg>